<mxfile host="app.diagrams.net" modified="2022-01-11T18:19:14.911Z" agent="5.0 (Windows NT 10.0; Win64; x64) AppleWebKit/537.36 (KHTML, like Gecko) Chrome/97.0.4692.71 Safari/537.36" etag="1t7TO2lxt9ambMhmh4wP" version="15.9.5" type="github">
  <diagram id="rq_beq3lxnqr8GJTzKAS" name="Page-1">
    <mxGraphModel dx="1422" dy="794" grid="1" gridSize="10" guides="1" tooltips="1" connect="1" arrows="1" fold="1" page="1" pageScale="1" pageWidth="827" pageHeight="1169" math="0" shadow="0">
      <root>
        <mxCell id="0" />
        <mxCell id="1" parent="0" />
        <mxCell id="H3Pa3cHgaCIbkLx01Kti-1" value="" style="shape=umlLifeline;participant=umlActor;perimeter=lifelinePerimeter;whiteSpace=wrap;html=1;container=1;collapsible=0;recursiveResize=0;verticalAlign=top;spacingTop=36;outlineConnect=0;" parent="1" vertex="1">
          <mxGeometry x="110" y="80" width="20" height="700" as="geometry" />
        </mxCell>
        <mxCell id="H3Pa3cHgaCIbkLx01Kti-2" value="" style="rounded=0;whiteSpace=wrap;html=1;" parent="H3Pa3cHgaCIbkLx01Kti-1" vertex="1">
          <mxGeometry y="60" width="20" height="600" as="geometry" />
        </mxCell>
        <mxCell id="H3Pa3cHgaCIbkLx01Kti-3" value="Window : UI" style="shape=umlLifeline;perimeter=lifelinePerimeter;whiteSpace=wrap;html=1;container=1;collapsible=0;recursiveResize=0;outlineConnect=0;" parent="1" vertex="1">
          <mxGeometry x="230" y="80" width="100" height="700" as="geometry" />
        </mxCell>
        <mxCell id="H3Pa3cHgaCIbkLx01Kti-4" value="" style="rounded=0;whiteSpace=wrap;html=1;" parent="H3Pa3cHgaCIbkLx01Kti-3" vertex="1">
          <mxGeometry x="40" y="60" width="20" height="80" as="geometry" />
        </mxCell>
        <mxCell id="H3Pa3cHgaCIbkLx01Kti-5" value="" style="rounded=0;whiteSpace=wrap;html=1;" parent="H3Pa3cHgaCIbkLx01Kti-3" vertex="1">
          <mxGeometry x="40" y="540" width="20" height="90" as="geometry" />
        </mxCell>
        <mxCell id="H3Pa3cHgaCIbkLx01Kti-6" value="RegistrationController: Back-end" style="shape=umlLifeline;perimeter=lifelinePerimeter;whiteSpace=wrap;html=1;container=1;collapsible=0;recursiveResize=0;outlineConnect=0;" parent="1" vertex="1">
          <mxGeometry x="410" y="80" width="140" height="700" as="geometry" />
        </mxCell>
        <mxCell id="H3Pa3cHgaCIbkLx01Kti-7" value="" style="rounded=0;whiteSpace=wrap;html=1;" parent="H3Pa3cHgaCIbkLx01Kti-6" vertex="1">
          <mxGeometry x="60" y="140" width="20" height="400" as="geometry" />
        </mxCell>
        <mxCell id="H3Pa3cHgaCIbkLx01Kti-8" value="RegistrationService: Back-end" style="shape=umlLifeline;perimeter=lifelinePerimeter;whiteSpace=wrap;html=1;container=1;collapsible=0;recursiveResize=0;outlineConnect=0;" parent="1" vertex="1">
          <mxGeometry x="610" y="80" width="140" height="700" as="geometry" />
        </mxCell>
        <mxCell id="H3Pa3cHgaCIbkLx01Kti-9" value="" style="rounded=0;whiteSpace=wrap;html=1;" parent="H3Pa3cHgaCIbkLx01Kti-8" vertex="1">
          <mxGeometry x="60" y="220" width="20" height="80" as="geometry" />
        </mxCell>
        <mxCell id="H3Pa3cHgaCIbkLx01Kti-10" value="DataSource: Back-end" style="shape=umlLifeline;perimeter=lifelinePerimeter;whiteSpace=wrap;html=1;container=1;collapsible=0;recursiveResize=0;outlineConnect=0;" parent="1" vertex="1">
          <mxGeometry x="810" y="80" width="140" height="700" as="geometry" />
        </mxCell>
        <mxCell id="H3Pa3cHgaCIbkLx01Kti-11" value="" style="rounded=0;whiteSpace=wrap;html=1;" parent="H3Pa3cHgaCIbkLx01Kti-10" vertex="1">
          <mxGeometry x="60" y="390" width="20" height="120" as="geometry" />
        </mxCell>
        <mxCell id="H3Pa3cHgaCIbkLx01Kti-14" value="" style="endArrow=classic;html=1;rounded=0;entryX=0;entryY=0.25;entryDx=0;entryDy=0;" parent="1" target="H3Pa3cHgaCIbkLx01Kti-4" edge="1">
          <mxGeometry width="50" height="50" relative="1" as="geometry">
            <mxPoint x="130" y="160" as="sourcePoint" />
            <mxPoint x="100" y="30" as="targetPoint" />
          </mxGeometry>
        </mxCell>
        <mxCell id="H3Pa3cHgaCIbkLx01Kti-15" value="&amp;nbsp;1: Fill in form&amp;nbsp;" style="edgeLabel;html=1;align=center;verticalAlign=middle;resizable=0;points=[];" parent="H3Pa3cHgaCIbkLx01Kti-14" vertex="1" connectable="0">
          <mxGeometry x="-0.236" relative="1" as="geometry">
            <mxPoint as="offset" />
          </mxGeometry>
        </mxCell>
        <mxCell id="H3Pa3cHgaCIbkLx01Kti-16" value="" style="endArrow=classic;html=1;rounded=0;entryX=0;entryY=0;entryDx=0;entryDy=0;exitX=1;exitY=1;exitDx=0;exitDy=0;" parent="1" source="H3Pa3cHgaCIbkLx01Kti-4" edge="1">
          <mxGeometry width="50" height="50" relative="1" as="geometry">
            <mxPoint x="360" y="300" as="sourcePoint" />
            <mxPoint x="470" y="220" as="targetPoint" />
          </mxGeometry>
        </mxCell>
        <mxCell id="H3Pa3cHgaCIbkLx01Kti-17" value="&amp;nbsp;1.1: send request with&amp;nbsp;&lt;br&gt;data" style="edgeLabel;html=1;align=center;verticalAlign=middle;resizable=0;points=[];" parent="H3Pa3cHgaCIbkLx01Kti-16" vertex="1" connectable="0">
          <mxGeometry x="-0.236" relative="1" as="geometry">
            <mxPoint as="offset" />
          </mxGeometry>
        </mxCell>
        <mxCell id="H3Pa3cHgaCIbkLx01Kti-18" value="" style="endArrow=classic;html=1;rounded=0;exitX=0;exitY=1;exitDx=0;exitDy=0;entryX=1.174;entryY=0.402;entryDx=0;entryDy=0;entryPerimeter=0;" parent="1" source="H3Pa3cHgaCIbkLx01Kti-9" target="H3Pa3cHgaCIbkLx01Kti-7" edge="1">
          <mxGeometry width="50" height="50" relative="1" as="geometry">
            <mxPoint x="590" y="560" as="sourcePoint" />
            <mxPoint x="500" y="380" as="targetPoint" />
          </mxGeometry>
        </mxCell>
        <mxCell id="H3Pa3cHgaCIbkLx01Kti-19" value="&amp;nbsp;1.1.1: return results of&amp;nbsp;&lt;br&gt;verification" style="edgeLabel;html=1;align=center;verticalAlign=middle;resizable=0;points=[];" parent="H3Pa3cHgaCIbkLx01Kti-18" vertex="1" connectable="0">
          <mxGeometry x="-0.236" relative="1" as="geometry">
            <mxPoint x="-21" y="1" as="offset" />
          </mxGeometry>
        </mxCell>
        <mxCell id="H3Pa3cHgaCIbkLx01Kti-20" value="" style="endArrow=classic;html=1;rounded=0;exitX=1;exitY=1;exitDx=0;exitDy=0;entryX=0;entryY=0;entryDx=0;entryDy=0;" parent="1" target="H3Pa3cHgaCIbkLx01Kti-9" edge="1">
          <mxGeometry width="50" height="50" relative="1" as="geometry">
            <mxPoint x="490" y="300" as="sourcePoint" />
            <mxPoint x="580" y="320" as="targetPoint" />
          </mxGeometry>
        </mxCell>
        <mxCell id="H3Pa3cHgaCIbkLx01Kti-21" value="&amp;nbsp;1.1.1: verify data provided&amp;nbsp;&lt;br&gt;by user" style="edgeLabel;html=1;align=center;verticalAlign=middle;resizable=0;points=[];" parent="H3Pa3cHgaCIbkLx01Kti-20" vertex="1" connectable="0">
          <mxGeometry x="-0.236" relative="1" as="geometry">
            <mxPoint x="11" y="1" as="offset" />
          </mxGeometry>
        </mxCell>
        <mxCell id="H3Pa3cHgaCIbkLx01Kti-22" value="" style="endArrow=classic;html=1;rounded=0;entryX=0;entryY=0;entryDx=0;entryDy=0;exitX=1.14;exitY=0.62;exitDx=0;exitDy=0;exitPerimeter=0;" parent="1" source="H3Pa3cHgaCIbkLx01Kti-7" target="H3Pa3cHgaCIbkLx01Kti-11" edge="1">
          <mxGeometry width="50" height="50" relative="1" as="geometry">
            <mxPoint x="490" y="620" as="sourcePoint" />
            <mxPoint x="670" y="620" as="targetPoint" />
          </mxGeometry>
        </mxCell>
        <mxCell id="H3Pa3cHgaCIbkLx01Kti-23" value="&amp;nbsp;1.1.2: if verification succeds, add user to database&amp;nbsp;" style="edgeLabel;html=1;align=center;verticalAlign=middle;resizable=0;points=[];" parent="H3Pa3cHgaCIbkLx01Kti-22" vertex="1" connectable="0">
          <mxGeometry x="-0.236" relative="1" as="geometry">
            <mxPoint x="11" y="1" as="offset" />
          </mxGeometry>
        </mxCell>
        <mxCell id="H3Pa3cHgaCIbkLx01Kti-24" value="" style="endArrow=classic;html=1;rounded=0;entryX=1;entryY=0;entryDx=0;entryDy=0;exitX=0;exitY=1;exitDx=0;exitDy=0;" parent="1" source="H3Pa3cHgaCIbkLx01Kti-11" edge="1">
          <mxGeometry width="50" height="50" relative="1" as="geometry">
            <mxPoint x="500" y="480" as="sourcePoint" />
            <mxPoint x="490" y="590" as="targetPoint" />
          </mxGeometry>
        </mxCell>
        <mxCell id="H3Pa3cHgaCIbkLx01Kti-25" value="&amp;nbsp;1.1.2: return result of registration&amp;nbsp;" style="edgeLabel;html=1;align=center;verticalAlign=middle;resizable=0;points=[];" parent="H3Pa3cHgaCIbkLx01Kti-24" vertex="1" connectable="0">
          <mxGeometry x="-0.236" relative="1" as="geometry">
            <mxPoint x="-45" as="offset" />
          </mxGeometry>
        </mxCell>
        <mxCell id="H3Pa3cHgaCIbkLx01Kti-26" value="" style="endArrow=classic;html=1;rounded=0;entryX=1;entryY=0;entryDx=0;entryDy=0;exitX=0;exitY=1;exitDx=0;exitDy=0;" parent="1" source="H3Pa3cHgaCIbkLx01Kti-7" target="H3Pa3cHgaCIbkLx01Kti-5" edge="1">
          <mxGeometry width="50" height="50" relative="1" as="geometry">
            <mxPoint x="880" y="600" as="sourcePoint" />
            <mxPoint x="500" y="600" as="targetPoint" />
          </mxGeometry>
        </mxCell>
        <mxCell id="H3Pa3cHgaCIbkLx01Kti-27" value="&amp;nbsp;1.1: send results" style="edgeLabel;html=1;align=center;verticalAlign=middle;resizable=0;points=[];" parent="H3Pa3cHgaCIbkLx01Kti-26" vertex="1" connectable="0">
          <mxGeometry x="-0.236" relative="1" as="geometry">
            <mxPoint x="-21" as="offset" />
          </mxGeometry>
        </mxCell>
        <mxCell id="H3Pa3cHgaCIbkLx01Kti-28" value="" style="endArrow=classic;html=1;rounded=0;entryX=1;entryY=0;entryDx=0;entryDy=0;exitX=0;exitY=1;exitDx=0;exitDy=0;" parent="1" source="H3Pa3cHgaCIbkLx01Kti-5" edge="1">
          <mxGeometry width="50" height="50" relative="1" as="geometry">
            <mxPoint x="220" y="650" as="sourcePoint" />
            <mxPoint x="130" y="710" as="targetPoint" />
          </mxGeometry>
        </mxCell>
        <mxCell id="H3Pa3cHgaCIbkLx01Kti-29" value="&amp;nbsp;1: show to user&amp;nbsp;&lt;br&gt;result&amp;nbsp;&amp;nbsp;" style="edgeLabel;html=1;align=center;verticalAlign=middle;resizable=0;points=[];" parent="H3Pa3cHgaCIbkLx01Kti-28" vertex="1" connectable="0">
          <mxGeometry x="-0.236" relative="1" as="geometry">
            <mxPoint x="-21" as="offset" />
          </mxGeometry>
        </mxCell>
      </root>
    </mxGraphModel>
  </diagram>
</mxfile>
